#!OML:ASF X:\für Bonn\!DataBase\2005_08_10_Bjorn_Final\c3d\bjorn.ASF
:FULLY-SPECIFIED
:DEGREES
107
root -16.1646 18.3843 16.8579 190.904 42.8517 -532.568
lowerback 10.444 0.808173 0.679071
upperback 18.0496 4.06679 -0.695102
thorax 14.2211 3.24226 -0.797636
lowerneck 10.6913 -3.58214 -0.866048
upperneck -17.4225 -3.29048 8.24703
head -6.92049 -2.12168 3.09417
rclavicle 5.1684e-015 3.33958e-014
rhumerus -14.8069 -8.22366 -90.1106
rradius 62.3282
rwrist -1.18204
rhand -19.5175 21.9222
rfingers 7.12502
rthumb 6.80561 -7.94842
lclavicle 5.1684e-015 3.33958e-014
lhumerus -11.0816 -2.37269 85.7876
lradius 62.1979
lwrist -13.788
lhand -44.1284 -17.0707
lfingers 7.12502
lthumb -16.9448 12.2101
rfemur -0.66168 -1.76051 16.1427
rtibia 36.9334
rfoot -19.7739 11.9129
rtoes -31.8142
lfemur -40.5251 11.7637 -9.96011
ltibia 47.4395
lfoot -5.94018 4.17081
ltoes -13.7108
108
root -16.1523 18.4173 16.7414 190.914 42.9634 -532.713
lowerback 10.4412 0.836554 0.554516
upperback 18.0288 4.09939 -0.745329
thorax 14.1939 3.24308 -0.786053
lowerneck 10.7555 -3.72679 -0.895597
upperneck -17.3281 -3.44617 8.57161
head -6.88655 -2.2251 3.21682
rclavicle -1.02573e-013 6.99722e-014
rhumerus -14.9134 -8.31279 -90.0298
rradius 62.379
rwrist -1.17212
rhand -19.4714 21.8515
rfingers 7.12502
rthumb 6.85009 -8.01767
lclavicle -1.02573e-013 6.99722e-014
lhumerus -11.1716 -2.19593 85.9953
lradius 62.5194
lwrist -13.7123
lhand -44.2088 -17.0144
lfingers 7.12502
lthumb -17.0222 12.2598
rfemur -0.864274 -1.42921 15.7933
rtibia 37.3857
rfoot -18.6594 11.7552
rtoes -32.1047
lfemur -40.1577 11.6711 -10.2579
ltibia 47.2805
lfoot -6.21215 4.30423
ltoes -13.1233
109
root -16.1387 18.45 16.6248 190.911 43.101 -532.821
lowerback 10.4493 0.862215 0.450801
upperback 18.0176 4.13322 -0.806297
thorax 14.1753 3.24979 -0.797586
lowerneck 10.7466 -3.86316 -0.877483
upperneck -17.1925 -3.58844 8.87393
head -6.82828 -2.32055 3.31972
rclavicle -2.90226e-014 -5.96354e-015
rhumerus -15.0077 -8.38962 -89.9749
rradius 62.426
rwrist -1.1122
rhand -19.4702 21.6686
rfingers 7.12502
rthumb 6.85129 -8.20056
lclavicle -2.90226e-014 -5.96354e-015
lhumerus -11.2575 -1.99327 86.1827
lradius 62.807
lwrist -13.6719
lhand -44.2929 -16.9619
lfingers 7.12502
lthumb -17.1031 12.3053
rfemur -1.09369 -0.993031 15.4849
rtibia 37.9439
rfoot -17.506 11.5324
rtoes -32.5738
lfemur -39.7129 11.5606 -10.5093
ltibia 47.0838
lfoot -6.47778 4.47031
ltoes -12.6163
110
root -16.1254 18.4844 16.5088 190.871 43.2393 -532.934
lowerback 10.4696 0.882264 0.314491
upperback 18.0097 4.15574 -0.836393
thorax 14.1479 3.24378 -0.757952
lowerneck 10.804 -3.98938 -0.927843
upperneck -17.1156 -3.72724 9.16764
head -6.79872 -2.41136 3.43425
rclavicle -6.87795e-014 -1.03368e-014
rhumerus -15.1139 -8.43458 -89.8661
rradius 62.437
rwrist -1.00775
rhand -19.5038 21.4192
rfingers 7.12502
rthumb 6.81885 -8.45103
lclavicle -6.87795e-014 -1.03368e-014
lhumerus -11.3437 -1.76947 86.4055
lradius 63.0434
lwrist -13.626
lhand -44.3571 -17.008
lfingers 7.12502
lthumb -17.1649 12.2538
rfemur -1.35808 -0.479429 15.2018
rtibia 38.6121
rfoot -16.3404 11.2105
rtoes -33.0905
lfemur -39.2134 11.4123 -10.7476
ltibia 46.8583
lfoot -6.72509 4.62774
ltoes -11.9823
111
root -16.112 18.5182 16.3935 190.776 43.3915 -533.068
lowerback 10.5263 0.906605 0.18084
upperback 18.0008 4.18948 -0.898186
thorax 14.1014 3.24822 -0.756869
lowerneck 10.7734 -4.1265 -0.893753
upperneck -16.9646 -3.87534 9.4405
head -6.73167 -2.50694 3.52368
rclavicle 3.61788e-014 9.93923e-015
rhumerus -15.2304 -8.54032 -89.8088
rradius 62.4909
rwrist -0.930987
rhand -19.5096 21.0709
rfingers 7.12502
rthumb 6.8132 -8.79946
lclavicle 3.61788e-014 9.93923e-015
lhumerus -11.4476 -1.60161 86.5589
lradius 63.2819
lwrist -13.5732
lhand -44.4287 -17.0086
lfingers 7.12502
lthumb -17.2338 12.2472
rfemur -1.65196 0.10125 14.9212
rtibia 39.4131
rfoot -15.179 10.812
rtoes -33.4989
lfemur -38.6479 11.2277 -10.988
ltibia 46.6003
lfoot -6.96467 4.82739
ltoes -11.4435
112
root -16.0966 18.5527 16.279 190.715 43.5498 -533.148
lowerback 10.542 0.930083 0.0507926
upperback 18.0012 4.2195 -0.931119
thorax 14.0888 3.24798 -0.722642
lowerneck 10.7359 -4.24877 -0.914906
upperneck -16.8371 -4.01203 9.71189
head -6.66969 -2.59299 3.62088
rclavicle 4.69132e-014 -5.40694e-014
rhumerus -15.3127 -8.62072 -89.708
rradius 62.4671
rwrist -0.792742
rhand -19.5766 20.7821
rfingers 7.12502
rthumb 6.74859 -9.09037
lclavicle 4.69132e-014 -5.40694e-014
lhumerus -11.5265 -1.38548 86.7303
lradius 63.4887
lwrist -13.509
lhand -44.4831 -17.1064
lfingers 7.12502
lthumb -17.2862 12.1448
rfemur -2.04005 0.683938 14.6967
rtibia 40.3529
rfoot -13.927 10.3737
rtoes -33.6787
lfemur -38.0697 11.0553 -11.1806
ltibia 46.3139
lfoot -7.17408 5.01306
ltoes -11.2207
113
root -16.0813 18.5866 16.1659 190.599 43.7056 -533.257
lowerback 10.5925 0.944871 -0.0898662
upperback 17.9929 4.23743 -0.979543
thorax 14.0445 3.24218 -0.702871
lowerneck 10.6742 -4.35486 -0.957492
upperneck -16.6745 -4.13312 9.98778
head -6.59204 -2.66918 3.71949
rclavicle -6.16232e-014 -2.14687e-014
rhumerus -15.4321 -8.71021 -89.6286
rradius 62.475
rwrist -0.668918
rhand -19.6766 20.5372
rfingers 7.12502
rthumb 6.65204 -9.33835
lclavicle -6.16232e-014 -2.14687e-014
lhumerus -11.6344 -1.19156 86.869
lradius 63.6802
lwrist -13.4528
lhand -44.592 -17.1114
lfingers 7.12502
lthumb -17.3911 12.1306
rfemur -2.50471 1.20375 14.4576
rtibia 41.4576
rfoot -12.6607 9.83606
rtoes -33.9648
lfemur -37.4335 10.8873 -11.391
ltibia 45.9919
lfoot -7.37624 5.18941
ltoes -11.0484
114
root -16.0646 18.6227 16.054 190.475 43.8744 -533.333
lowerback 10.6457 0.971956 -0.238775
upperback 17.9961 4.27258 -1.00282
thorax 14.0111 3.24241 -0.649767
lowerneck 10.5482 -4.47237 -0.973898
upperneck -16.4812 -4.27891 10.2121
head -6.49348 -2.75243 3.79545
rclavicle 4.6118e-014 -2.14687e-014
rhumerus -15.5479 -8.82488 -89.5128
rradius 62.5102
rwrist -0.558928
rhand -19.7607 20.295
rfingers 7.12502
rthumb 6.57087 -9.58307
lclavicle 4.6118e-014 -2.14687e-014
lhumerus -11.7262 -1.01303 87.0303
lradius 63.8637
lwrist -13.4219
lhand -44.6931 -17.0933
lfingers 7.12502
lthumb -17.4884 12.1401
rfemur -3.06039 1.67856 14.2555
rtibia 42.7205
rfoot -11.1948 9.15811
rtoes -34.1024
lfemur -36.75 10.7178 -11.5653
ltibia 45.641
lfoot -7.5573 5.37958
ltoes -10.9022
115
root -16.047 18.6585 15.9439 190.361 44.0477 -533.413
lowerback 10.6757 0.985567 -0.402398
upperback 17.9908 4.28619 -1.03961
thorax 13.9803 3.22977 -0.603156
lowerneck 10.4097 -4.55828 -1.06426
upperneck -16.2745 -4.38334 10.5041
head -6.3869 -2.81515 3.90065
rclavicle 2.38542e-015 3.18055e-014
rhumerus -15.6844 -8.85826 -89.4028
rradius 62.5901
rwrist -0.575205
rhand -19.8475 20.1069
rfingers 7.12502
rthumb 6.48704 -9.77374
lclavicle 2.38542e-015 3.18055e-014
lhumerus -11.8323 -0.806323 87.1583
lradius 64.0357
lwrist -13.4021
lhand -44.8115 -16.9873
lfingers 7.12502
lthumb -17.6022 12.2359
rfemur -3.77134 1.97257 14.029
rtibia 44.1509
rfoot -9.61863 8.39556
rtoes -34.5978
lfemur -36.0631 10.5542 -11.7453
ltibia 45.2583
lfoot -7.75275 5.58209
ltoes -10.6338
